<svg width="135" height="51" viewBox="0 0 135 51" fill="none" xmlns="http://www.w3.org/2000/svg">
<path d="M0 44.0158L3.16354 37.6953C5.79913 39.7823 10.376 42.7795 14.1293 42.7795C18.4195 42.7795 19.5298 41.1586 19.5298 39.0732C19.5298 32.7157 1.80703 36.6443 2.03435 23.9399C2.10683 19.8737 5.76948 14.3036 14.663 14.3036C18.5949 14.3036 24.4525 16.1872 27.3566 18.1746L24.4583 24.4341C21.5534 22.6386 19.2695 21.7368 16.4074 21.1734C12.1946 20.344 9.97819 21.8611 9.97819 23.996C9.97819 30.2555 27.1557 26.6612 27.5329 39.0765C27.7059 44.7513 23.0219 49.0918 14.0848 49.0918C9.1241 49.0876 2.77067 46.345 0 44.0158Z" fill="black"/>
<path d="M54.5643 37.8749H36.2898C36.9627 41.1018 39.5225 43.0785 43.2041 43.0785C45.7631 43.0785 47.6047 42.2599 49.266 40.5739L53.1773 44.3963C50.9321 47.1423 47.3799 49.091 43.0245 49.091C34.6771 49.0968 29.2412 43.4615 29.2412 35.7557C29.2412 28.0013 34.7636 22.413 42.1276 22.413C49.2215 22.413 54.6994 27.5195 54.6994 35.8512C54.6986 36.4303 54.6088 37.2489 54.5643 37.8749ZM36.1975 33.4924H48.1022C47.608 30.2168 45.3183 28.0977 42.1721 28.0977C38.9838 28.0977 36.6934 30.1682 36.2 33.4924H36.1975Z" fill="black"/>
<path d="M81.2684 37.8699H62.9939C63.6643 41.0968 66.2274 43.0735 69.909 43.0735C72.468 43.0735 74.3088 42.2548 75.9701 40.5689L79.8823 44.3913C77.6371 47.1373 74.0848 49.086 69.7295 49.086C61.3779 49.086 55.9453 43.4507 55.9453 35.7433C55.9453 27.9889 61.4677 22.4006 68.8309 22.4006C75.9256 22.4006 81.4035 27.507 81.4035 35.8388C81.4035 36.4252 81.3137 37.2439 81.2684 37.8699ZM62.9016 33.4874H74.803C74.3088 30.2118 72.0191 28.0926 68.8729 28.0926C65.6879 28.0926 63.3983 30.1632 62.9041 33.4874H62.9016Z" fill="black"/>
<path d="M113.146 45.3987L115.506 40.4067C117.596 41.8999 121.085 43.4129 123.958 43.4129C127.088 43.4129 127.351 42.9509 127.351 41.5054C127.351 37.7044 114.49 39.5757 114.306 30.6954C114.205 25.7841 118.125 22.413 124.96 22.413C128.181 22.413 131.989 23.9861 134.208 25.4316L131.67 30.6064C129.364 29.161 127.245 28.2393 125.135 27.9156C122.676 27.5376 121.117 28.479 121.117 29.8273C121.117 34.2584 134.565 31.3847 134.386 41.1389C134.299 45.9546 130.218 49.114 123.21 49.114C119.249 49.114 115.322 46.9875 113.146 45.3987Z" fill="black"/>
<path d="M115.133 8.45588L107.612 0.93455C107.01 0.336037 106.195 7.62939e-05 105.347 7.62939e-05C104.498 7.62939e-05 103.684 0.336037 103.082 0.93455L95.5603 8.45588C95.2626 8.75315 95.0264 9.1062 94.8652 9.49485C94.7041 9.88349 94.6211 10.3001 94.6211 10.7208C94.6211 11.1416 94.7041 11.5582 94.8652 11.9468C95.0264 12.3355 95.2626 12.6885 95.5603 12.9858C95.8576 13.2835 96.2107 13.5198 96.5993 13.6809C96.9879 13.8421 97.4046 13.925 97.8253 13.925C98.246 13.925 98.6626 13.8421 99.0513 13.6809C99.4399 13.5198 99.793 13.2835 100.09 12.9858L105.343 7.72038L110.604 12.9817C110.901 13.2794 111.254 13.5156 111.643 13.6768C112.031 13.838 112.448 13.9209 112.869 13.9209C113.29 13.9209 113.706 13.838 114.095 13.6768C114.483 13.5156 114.836 13.2794 115.134 12.9817C115.734 12.3814 116.071 11.5673 116.07 10.7186C116.07 9.86989 115.733 9.05597 115.133 8.45588Z" fill="black"/>
<path d="M108.55 21.1201V17.4484V12.7504L105.343 9.55231L102.141 12.7529V18.5759C102.141 18.7596 102.09 20.0757 100.988 20.5238L90.3782 24.8371L90.3873 24.8594C88.3316 25.8343 86.5753 27.3431 85.3015 29.2282C84.0277 31.1133 83.2831 33.3056 83.1454 35.5766C83.0077 37.8475 83.4819 40.1138 84.5185 42.139C85.5551 44.1642 87.1162 45.8742 89.0389 47.0904C90.9617 48.3067 93.1755 48.9847 95.4496 49.0538C97.7237 49.1229 99.9746 48.5804 101.968 47.4831C103.961 46.3857 105.623 44.7737 106.78 42.8151C107.938 40.8565 108.549 38.6232 108.549 36.3481C108.549 36.2352 108.549 36.1232 108.549 36.0112V26.9934L102.147 29.5952V36.5235C102.115 37.6504 101.782 38.7483 101.182 39.7028C100.583 40.6574 99.7381 41.4338 98.7365 41.9513C97.7349 42.4688 96.613 42.7085 95.4874 42.6454C94.3618 42.5823 93.2737 42.2187 92.3362 41.5925C91.3987 40.9664 90.6462 40.1004 90.1568 39.0848C89.6675 38.0692 89.4592 36.941 89.5537 35.8176C89.6482 34.6942 90.042 33.6166 90.6941 32.697C91.3462 31.7774 92.2328 31.0493 93.2617 30.5885V30.5769L106.071 25.37C106.546 25.1484 108.55 24.1947 108.55 21.1201Z" fill="black"/>
<path d="M106.586 27.7881C106.586 27.7881 107.909 27.3573 108.549 26.0511V28.4116L106.586 27.7881Z" fill="black"/>
<path d="M110.478 24.8746V37.616C110.478 44.7815 103.994 50.5971 95.9951 50.5971C95.3675 50.5973 94.7405 50.561 94.1172 50.4884C95.3516 50.7938 96.6186 50.9476 97.8902 50.9464C105.68 50.9464 111.995 45.2864 111.995 38.3046V22.8048C111.543 23.8434 111.03 24.4628 110.478 24.8746Z" fill="black"/>
<path d="M108.546 36.007V28.4116V26.0511C107.837 27.2313 107.212 27.5114 106.806 27.6983L102.14 29.5926V36.3464H108.546C108.55 36.2311 108.548 36.119 108.546 36.007Z" fill="url(#paint0_linear_5663_805)"/>
<path d="M110.475 14.6518V19.3712C110.468 19.979 110.431 22.0068 109.651 23.5124C109.651 23.5124 111.945 21.4138 111.99 18.4981V15.9449L110.475 14.6518Z" fill="black"/>
<defs>
<linearGradient id="paint0_linear_5663_805" x1="107.375" y1="36.7705" x2="104.068" y2="27.6818" gradientUnits="userSpaceOnUse">
<stop offset="0.06"/>
<stop offset="0.94" stop-color="#44FFBC"/>
</linearGradient>
</defs>
</svg>
